<?xml version="1.0" standalone="no"?>
<!DOCTYPE svg PUBLIC "-//W3C//DTD SVG 20010904//EN"
 "http://www.w3.org/TR/2001/REC-SVG-20010904/DTD/svg10.dtd">
<svg version="1.0" xmlns="http://www.w3.org/2000/svg"
 width="225.000000pt" height="225.000000pt" viewBox="0 0 225.000000 225.000000"
 preserveAspectRatio="xMidYMid meet">

<g transform="translate(0.000000,225.000000) scale(0.100000,-0.100000)"
fill="#000000" stroke="none">
<path d="M1123 1963 c20 -2 54 -2 75 0 20 2 3 4 -38 4 -41 0 -58 -2 -37 -4z"/>
<path d="M1366 1852 c-28 -56 -46 -115 -67 -215 -15 -76 -35 -150 -44 -163
-14 -22 -22 -24 -93 -23 -42 0 -101 4 -129 8 -29 4 -53 4 -53 1 0 -4 21 -10
46 -14 26 -3 53 -11 60 -17 10 -9 14 -9 14 0 0 7 22 11 58 11 79 0 105 -8 99
-31 -3 -12 0 -19 9 -19 16 0 37 -36 29 -50 -3 -6 -1 -10 5 -10 6 0 8 -5 5 -10
-4 -6 -1 -9 6 -8 7 2 14 -1 14 -7 1 -16 41 -76 47 -70 8 8 79 -65 73 -75 -3
-5 0 -7 8 -4 7 2 33 -7 58 -20 24 -14 51 -26 59 -25 8 0 -6 10 -31 22 -53 26
-121 82 -111 93 4 4 2 4 -4 1 -25 -14 -144 153 -144 203 0 5 9 10 20 10 12 0
20 -7 20 -17 0 -72 133 -230 245 -291 33 -18 49 -30 36 -26 -16 4 -21 3 -17
-5 4 -6 16 -11 26 -11 20 0 33 -13 23 -24 -4 -3 -8 -16 -9 -29 -1 -12 -8 -45
-15 -74 -14 -65 -7 -107 31 -166 43 -68 103 -93 165 -68 39 16 76 51 68 64 -3
6 -1 7 5 3 18 -11 61 65 76 135 8 35 21 84 30 108 23 63 21 133 -4 156 -29 26
-25 74 11 146 24 47 31 74 32 120 0 58 -1 61 -43 100 -24 22 -57 51 -74 63
-36 27 -147 66 -188 66 -26 0 -28 3 -28 38 0 48 -32 100 -73 116 -17 8 -60 17
-94 21 -35 4 -63 11 -63 15 0 5 -13 18 -28 29 l-28 20 -38 -77z m480 -1067
c-1 -8 -5 -17 -8 -21 -5 -4 -4 16 1 34 3 9 9 -1 7 -13z"/>
<path d="M653 1715 c0 -33 2 -45 4 -27 2 18 2 45 0 60 -2 15 -4 0 -4 -33z"/>
<path d="M950 1665 c-23 -24 -23 -25 -5 -45 14 -15 31 -20 69 -20 28 0 46 4
41 8 -6 4 -23 24 -38 45 -15 20 -32 37 -36 37 -4 0 -18 -11 -31 -25z"/>
<path d="M676 1555 c4 -15 -11 -38 -55 -85 -33 -36 -60 -59 -61 -52 0 7 24 38
53 69 45 49 47 53 17 32 -54 -37 -90 -71 -84 -81 3 -5 0 -7 -6 -6 -15 4 -61
-82 -55 -100 3 -7 1 -11 -3 -8 -14 8 -44 -103 -48 -178 -2 -39 -7 -73 -12 -77
-4 -4 -60 -30 -126 -58 -118 -50 -156 -73 -156 -97 0 -34 93 -30 370 17 192
31 231 41 265 63 20 13 27 12 80 -15 72 -36 125 -38 186 -6 114 61 173 235
117 347 -38 75 -116 102 -232 82 -34 -6 -44 -4 -63 15 -53 54 -144 8 -235
-117 -34 -48 -68 -127 -68 -160 0 -17 -7 -30 -16 -34 -14 -5 -16 -1 -10 26 9
46 57 146 94 197 18 24 29 48 25 54 -3 5 -1 7 4 4 6 -4 16 0 23 8 23 28 110
85 110 72 0 -9 2 -9 8 0 5 8 20 9 52 2 25 -6 50 -10 57 -11 7 -1 10 -5 7 -10
-3 -5 -9 -6 -14 -3 -4 3 -6 -4 -3 -16 5 -19 7 -19 15 -5 5 9 13 14 18 11 5 -3
12 0 16 6 4 8 3 9 -4 5 -7 -4 -12 -2 -12 3 0 6 10 11 23 12 12 1 -28 9 -88 19
-123 19 -144 27 -174 67 -16 22 -19 24 -15 8z m-59 -171 c-3 -3 -12 -4 -19 -1
-8 3 -5 6 6 6 11 1 17 -2 13 -5z m-29 -39 c-3 -3 -9 2 -12 12 -6 14 -5 15 5 6
7 -7 10 -15 7 -18z m112 -60 c-7 -9 -15 -13 -17 -11 -7 7 7 26 19 26 6 0 6 -6
-2 -15z m332 -22 c10 -9 18 -21 18 -27 0 -6 -7 -1 -15 11 -10 14 -29 23 -53
26 l-37 4 34 1 c20 1 42 -5 53 -15z m-342 -17 c0 -16 -18 -31 -27 -22 -8 8 5
36 17 36 5 0 10 -6 10 -14z m250 10 c0 -2 -8 -10 -17 -17 -16 -13 -17 -12 -4
4 13 16 21 21 21 13z m58 -8 c-6 -18 -28 -21 -28 -4 0 9 7 16 16 16 9 0 14 -5
12 -12z m-1 -44 c9 -23 -13 -40 -32 -24 -12 10 -13 16 -4 26 15 18 28 18 36
-2z"/>
<path d="M1215 1399 c-10 -15 3 -25 16 -12 7 7 7 13 1 17 -6 3 -14 1 -17 -5z"/>
<path d="M1250 1340 c0 -5 5 -10 10 -10 6 0 10 5 10 10 0 6 -4 10 -10 10 -5 0
-10 -4 -10 -10z"/>
<path d="M1280 1300 c0 -5 5 -10 11 -10 5 0 7 5 4 10 -3 6 -8 10 -11 10 -2 0
-4 -4 -4 -10z"/>
<path d="M1310 1261 c0 -5 5 -13 10 -16 6 -3 10 -2 10 4 0 5 -4 13 -10 16 -5
3 -10 2 -10 -4z"/>
<path d="M1345 1210 c3 -5 8 -10 11 -10 2 0 4 5 4 10 0 6 -5 10 -11 10 -5 0
-7 -4 -4 -10z"/>
<path d="M1386 1165 c4 -8 11 -15 16 -15 6 0 5 6 -2 15 -7 8 -14 15 -16 15 -2
0 -1 -7 2 -15z"/>
<path d="M1428 1124 c13 -9 26 -13 29 -10 4 3 1 6 -6 6 -7 0 -9 5 -6 10 3 6
-4 10 -17 10 l-22 0 22 -16z"/>
<path d="M1499 1079 c26 -16 36 -18 45 -8 8 9 8 10 -1 5 -7 -4 -23 0 -35 8
-12 9 -27 16 -33 16 -5 0 5 -9 24 -21z"/>
<path d="M1600 1063 c0 -10 4 -14 8 -8 4 6 11 13 16 18 5 4 2 7 -7 7 -10 0
-17 -8 -17 -17z"/>
<path d="M1558 1053 c6 -2 18 -2 25 0 6 3 1 5 -13 5 -14 0 -19 -2 -12 -5z"/>
<path d="M1140 946 c0 -2 8 -10 18 -17 15 -13 16 -12 3 4 -13 16 -21 21 -21
13z"/>
<path d="M1676 603 c-6 -14 -5 -15 5 -6 7 7 10 15 7 18 -3 3 -9 -2 -12 -12z"/>
<path d="M527 573 c-4 -3 -7 -14 -7 -23 0 -21 114 -157 137 -164 25 -8 132 19
151 38 14 14 13 16 -14 27 -16 6 -45 11 -65 10 -29 -1 -38 3 -47 24 -7 14 -19
28 -28 32 -9 3 -27 17 -40 30 -13 13 -28 22 -33 18 -5 -3 -12 -1 -16 5 -7 11
-28 13 -38 3z"/>
<path d="M1626 541 c-21 -22 -25 -31 -14 -37 7 -4 10 -3 5 1 -4 5 5 21 20 37
15 15 24 28 22 28 -3 0 -18 -13 -33 -29z"/>
<path d="M1649 533 c-13 -16 -12 -17 4 -4 16 13 21 21 13 21 -2 0 -10 -8 -17
-17z"/>
<path d="M1249 473 c-13 -16 -12 -17 4 -4 16 13 21 21 13 21 -2 0 -10 -8 -17
-17z"/>
<path d="M1525 459 c-27 -16 -47 -29 -43 -29 14 0 98 44 98 52 0 4 -1 8 -2 7
-2 -1 -25 -14 -53 -30z"/>
<path d="M843 463 c-10 -27 34 -97 88 -137 55 -41 74 -41 119 -2 41 35 88 66
102 66 7 0 2 6 -12 13 -14 6 -54 12 -90 12 -60 0 -65 2 -70 24 -8 36 -35 49
-58 28 -17 -16 -20 -16 -25 -2 -8 20 -46 19 -54 -2z"/>
</g>
</svg>
